<svg xmlns="http://www.w3.org/2000/svg" viewBox="0 0 36.77 36.77"><defs><style>.cls-1{fill:#c4dadf;}.cls-2{fill:#2f4053;}.cls-3{fill:#0092bf;}</style></defs><g id="Calque_2" data-name="Calque 2"><g id="Calque_1-2" data-name="Calque 1"><rect class="cls-1" width="36.77" height="36.77" rx="3.77"/><path class="cls-2" d="M10.32,26.65A3,3,0,0,0,9,26.34a2.88,2.88,0,0,0-1.46.37A2.79,2.79,0,0,0,7.1,27v-2.9H4.39V33H7.1V29.94a1.84,1.84,0,0,1,.14-.78.88.88,0,0,1,.37-.41,1,1,0,0,1,.51-.13.73.73,0,0,1,.59.26,1.38,1.38,0,0,1,.22.87V33h2.71V29.28a3.43,3.43,0,0,0-.36-1.68A2.15,2.15,0,0,0,10.32,26.65Z"/><polygon class="cls-2" points="20.61 26.46 17.41 26.46 15.53 28.36 15.53 24.12 12.81 24.12 12.81 33.02 15.53 33.02 15.53 31.47 15.96 31.01 17.55 33.02 20.83 33.02 17.9 29.3 20.61 26.46"/><path class="cls-3" d="M22.71,30.05a1.61,1.61,0,0,0-1.13.42,1.45,1.45,0,0,0-.45,1.11,1.52,1.52,0,0,0,.45,1.13,1.58,1.58,0,0,0,1.13.43,1.56,1.56,0,0,0,1.13-.43,1.53,1.53,0,0,0,.46-1.13,1.45,1.45,0,0,0-.46-1.11A1.6,1.6,0,0,0,22.71,30.05Z"/><path class="cls-2" d="M32,27.6a2.22,2.22,0,0,0-1-1,2.9,2.9,0,0,0-1.36-.31,2.86,2.86,0,0,0-1.46.37,2,2,0,0,0-.39.31v-2.9H25.14V33h2.71V29.94a1.7,1.7,0,0,1,.14-.78.83.83,0,0,1,.37-.41,1,1,0,0,1,.51-.13.74.74,0,0,1,.59.26,1.39,1.39,0,0,1,.21.87V33h2.71V29.28A3.44,3.44,0,0,0,32,27.6Z"/></g></g></svg>